<svg xmlns="http://www.w3.org/2000/svg" viewBox="0 0 356.98 355.81"><defs><style>.cls-1{fill:#861f1a;}.cls-2{fill:#d1d3d4;}.cls-3{fill:#fff;}.cls-4{fill:#f1f2f2;}.cls-5{fill:#731710;}.cls-6{fill:#94251f;}</style></defs><g id="Layer_4" data-name="Layer 4"><rect class="cls-1" x="5.02" y="5.24" width="347.61" height="347.1" rx="12"/></g><g id="Layer_1" data-name="Layer 1"><ellipse class="cls-2" cx="171.45" cy="170.59" rx="124.4" ry="50.74" transform="translate(-19.04 21.56) rotate(-6.82)"/></g><g id="Layer_2" data-name="Layer 2"><path class="cls-3" d="M106,110.47C89.92,123.73,83.9,143.08,81.4,151.13c-2.18,7-4.26,13.68-4.18,22.82a205.2,205.2,0,0,0,2.86,28.47c.72,4.35,1.72,9.57-.88,14.69a15.07,15.07,0,0,1-5.72,6.32c-4.81,2.79-7.9.13-11.86,3.16a11,11,0,0,0-4.4,7.69c-.28,4.21,2.79,7.4,4.84,9.49,10.52,10.73,29,10.5,32.67,8.88a2.66,2.66,0,0,1,1.76-.22c2.31.6,3,5.09,3.15,5.72.76,3.9,9.73,16.76,37.14,27.49,6,2.34,33.36,12.62,76.69,11.67,4.17-.09,33.32-1,63.29-13.1,2.35-.95,20.25-8.42,24-20.34.65-2.1,2.17-7-.22-11.29a10.48,10.48,0,0,0-4.62-4.3c-3.18-1.5-5.49.12-9.89.46-.6,0-6.4.43-11-1.81-7.48-3.66-12.11-14.49-9.23-18.75,1.18-1.76,2.77-1.12,7.69-2.71,2.69-.88,10.52-3.43,14.94-9.72,3.54-5,5-12.63,2.42-14.91-1.51-1.32-3,.34-8.57.22-2,0-7.92-.23-13-4.06a10.53,10.53,0,0,1-3.73-4.29c-1.44-3.37-.32-6.83,0-7.91,2.6-8.93-.73-23.36-2.64-31.63a74.21,74.21,0,0,0-10.77-24.63c-11.3-16.27-27.38-22.27-39.12-26.66-24.62-9.2-45.77-7.35-58.45-6.1C133.91,97.82,119.65,99.23,106,110.47Z"/><path class="cls-4" d="M274.55,128.34c-3.92-2.63-6.88-3.83-8.78-7.63-32.37-21-73.55-12.25-109.51-8.89-29.24,3.47-58.48,10.39-85.51,25.27-1.38,5.8-5.76,9.14-9.07,12.57C56.44,155.1,50.49,164.35,48,181a125.38,125.38,0,0,1,26.06-29c26.45-21.4,54.17-25.16,86.12-29.48,31.58-4.28,55.11-7.47,83,2.26s47.6,28,49.46,25.4C294,148.27,286,136,274.55,128.34Z"/><path class="cls-3" d="M265.77,120.71l0-.08c-2.77-5.63.18-10-.44-17.23-.69-8.16-5.34-13.86-8.83-18.15-2.25-2.76-8.61-9.81-30.92-16.78A148.07,148.07,0,0,0,188,61.21c-5.92-.35-31.08-1.51-62.27,9.08-13.08,4.43-27.28,9.42-41.07,22.22-7,6.45-18.25,16.94-16.78,28.58.72,5.71,4.13,8.68,3.09,15-.06.36-.13.7-.21,1,27-14.88,56.27-21.8,85.51-25.27C192.22,108.46,233.4,99.74,265.77,120.71Z"/></g><g id="Layer_3" data-name="Layer 3"><path class="cls-4" d="M137.88,113.82c3.45,3.63,9.24-2.24,21.64-3.58a92.54,92.54,0,0,1,20.4-.13c2.24.31,8.29,1.26,9.64-1.52a9,9,0,0,0,.4-2.68c.36-3.94.36-6,.36-6,0-4.8.12-9.6.08-14.4-.12-14.94,1.44-15.1,0-18-1.37-2.69-2.94-2.89-15.39-8.4-12-5.3-13.43-6.4-16.55-5.6-2,.51-1.28.92-11,7.25-3.77,2.46-5.26,3.3-8.17,5.47-6.68,5-7.61,7.14-7.91,7.91-.62,1.62-.67,3,.41,10.16,1.75,11.69,2.54,12.4,4.39,22.89C137.08,112.29,137,112.94,137.88,113.82Z"/><path class="cls-5" d="M236.19,80.62c-.34.15-1.15-2.76-3.52-4.06-1.91-1.06-4.83-1.06-6.37.45-2.33,2.27-1.11,7.61.88,10.84,2.33,3.8,5.6,4.47,5.49,7-.08,1.89-1.93,2-2.42,4.29-.6,2.82,1.62,5.48,4.4,8.81,2.16,2.59,3.7,4.38,5.71,4.29,1.78-.07,2.48-1.54,3.74-1.13,1.41.47,1.14,2.52,2.64,4.75s5,4.61,7.47,3.61c1.92-.76,3-3.31,3.07-5.42.11-4-3.59-7.13-2.85-7.91.41-.43,1.52.55,2.85,0a3.61,3.61,0,0,0,1.76-2c1.51-3.34-.19-7.41-.88-9-1.13-2.71-2.18-5.2-4.39-5.87s-3.94.79-4.84-.23c-.57-.65-.17-1.63,0-3.16a14.31,14.31,0,0,0-1.1-7.23,9.81,9.81,0,0,0-7-5.65c-.57-.09-3.81-.61-5.05,1.13C234.23,76.21,236.62,80.43,236.19,80.62Z"/><path class="cls-6" d="M237.65,78.38c-.34.16-1.15-2.76-3.52-4.06-1.91-1-4.83-1-6.37.45-2.33,2.27-1.11,7.61.88,10.84,2.33,3.8,5.6,4.47,5.49,7-.08,1.9-1.93,2-2.42,4.29-.6,2.82,1.62,5.48,4.4,8.81,2.16,2.59,3.7,4.38,5.71,4.29,1.78-.07,2.48-1.54,3.74-1.12,1.41.46,1.14,2.51,2.64,4.74,1.59,2.38,5,4.61,7.47,3.61,1.92-.76,3-3.31,3.07-5.42.11-4-3.59-7.12-2.85-7.91.41-.43,1.52.56,2.85,0a3.61,3.61,0,0,0,1.76-2c1.51-3.33-.19-7.4-.88-9-1.13-2.71-2.18-5.2-4.39-5.87s-3.94.79-4.84-.23c-.57-.65-.17-1.62,0-3.16a14.31,14.31,0,0,0-1.1-7.23,9.81,9.81,0,0,0-7-5.65c-.57-.09-3.81-.61-5,1.13C235.69,74,238.08,78.19,237.65,78.38Z"/><path class="cls-1" d="M161.28,100c.44-.07-.58-3.26.66-6.89,1.34-3.92,4.74-6.67,5.71-7.46,2.24-1.8,3.68-2.17,4.51-4.18.69-1.68.65-3.78,0-4.06-.36-.15-.74.3-2.42,1.81-2.7,2.42-3.49,2.85-4.39,2.93s-1.89-.14-2-.56,1.07-1.08,3.4-2.37c3.71-2.05,5.14-2.84,6.16-4.52.44-.73.78-1.59.55-1.81-.51-.47-3,2.65-4.84,1.92-.8-.32-.55-1-1.54-2.15a7.68,7.68,0,0,0-6.37-2.14c-1.35.16-1.94.64-2.42.22-.92-.8.17-3.48.22-3.61a3.68,3.68,0,0,1,1.43-2c1.63-.89,3.57.85,4,.34s-1.19-3.4-3.85-4.18a4.58,4.58,0,0,0-3.84.46,5.23,5.23,0,0,0-1.87,3.61c-.39,2.35.61,3.38.33,6.67-.07.73-.48,1.34-.22,1.58s1.36-.7,2.85-1.13c2.22-.65,5.34.12,6.49,2.26a3.39,3.39,0,0,1,.44,2.59c-.47,1.38-1.94,1.17-3.08,2.49-.56.65-.83,1.41-1,6.1-.14,4,0,6-.33,6s-.24-2-1.65-4.3c-1.2-1.93-2.32-2.16-4.28-5-1.26-1.79-1.22-2.3-1.1-2.59.44-1.07,2.83-1.19,4.06-1.25,1.8-.08,2.7.24,3.41-.45a1.79,1.79,0,0,0,.55-1.58c-.34-1.42-3.27-1.66-3.63-1.69-2.33-.2-4,.72-6.81,2.25-2,1.08-2.59,1.75-2.75,2.6a2.89,2.89,0,0,0,.33,1.81,4.08,4.08,0,0,0,2.31,1.47c1,.41,2,1.48,3.85,3.61a31,31,0,0,1,3.73,5C160.49,96.17,160.81,100,161.28,100Z"/><path class="cls-1" d="M216.27,154.39l-25.71-2.85a2.06,2.06,0,0,0-2.24,1.85l-.39,3.79a2.09,2.09,0,0,0,1.8,2.3l25.71,2.84a2,2,0,0,0,2.23-1.85l2.47-4.67C220.26,154.66,217.38,154.51,216.27,154.39Z"/><path class="cls-1" d="M111,170.22,134.84,160a2,2,0,0,1,2.65,1.12l1.43,3.51a2.11,2.11,0,0,1-1.09,2.73L114,177.58a2,2,0,0,1-2.66-1.12l-3.65-3.75C107.23,171.65,110,170.66,111,170.22Z"/><path class="cls-1" d="M141.83,178.7c-.25.39-.43,1,.11,4.29a35,35,0,0,0,1.1,5.31c.57,1.77,2.25,7,7,10.67,3.49,2.65,6.93,3.13,10.77,3.68a24.48,24.48,0,0,0,12.2-.79,21.83,21.83,0,0,0,7.58-4.52,16.65,16.65,0,0,0,5.16-8,17.1,17.1,0,0,0,.33-5.43c-.3-8.58,1.52-11.75-.22-13.1a21.58,21.58,0,0,0-3.35-.28c-2.76-.17-3.5-.15-4,.39-.31.33-.39.94-.55,2.15-.33,2.61,0,3.13-.49,4.24a3.67,3.67,0,0,1-2,1.92,3.55,3.55,0,0,1-2.75-.34c-.3-.17-1-.58-2.69-3.39-1.17-1.92-1-2-1.43-2.32-1.22-1-2.95-.45-6,.34-2.44.64-4.91,1.18-7.36,1.81-4.51,1.15-6.77,1.72-7.69,1.86C144.15,177.7,142.6,177.48,141.83,178.7Z"/><ellipse class="cls-1" cx="112.16" cy="199.26" rx="16.48" ry="19.66"/><ellipse class="cls-1" cx="225.12" cy="184.46" rx="16.51" ry="19.63" transform="translate(-33.58 51.13) rotate(-12.07)"/></g></svg>